<svg xmlns="http://www.w3.org/2000/svg" xmlns:xlink="http://www.w3.org/1999/xlink" width="500" zoomAndPan="magnify" viewBox="0 0 375 374.999991" height="500" preserveAspectRatio="xMidYMid meet" version="1.0"><defs><g/><clipPath id="id1"><path d="M 57.003906 187.5 L 185.253906 187.5 L 185.253906 309 L 57.003906 309 Z M 57.003906 187.5 " clip-rule="nonzero"/></clipPath><clipPath id="id2"><path d="M 191.347656 187.5 L 313.597656 187.5 L 313.597656 309 L 191.347656 309 Z M 191.347656 187.5 " clip-rule="nonzero"/></clipPath><clipPath id="id3"><path d="M 57.003906 61.785156 L 123.003906 61.785156 L 123.003906 183.285156 L 57.003906 183.285156 Z M 57.003906 61.785156 " clip-rule="nonzero"/></clipPath><clipPath id="id4"><path d="M 247.394531 61.785156 L 313.394531 61.785156 L 313.394531 183.285156 L 247.394531 183.285156 Z M 247.394531 61.785156 " clip-rule="nonzero"/></clipPath><clipPath id="id5"><path d="M 128.03125 61.785156 L 242.03125 61.785156 L 242.03125 183.285156 L 128.03125 183.285156 Z M 128.03125 61.785156 " clip-rule="nonzero"/></clipPath></defs><g clip-path="url(#id1)"><path fill="#ffffff" d="M 172.800781 309 L 69.457031 309 C 62.597656 309 57.003906 303.429688 57.003906 296.59375 L 57.003906 199.90625 C 57.003906 193.070312 62.597656 187.5 69.457031 187.5 L 172.800781 187.5 C 179.664062 187.5 185.253906 193.070312 185.253906 199.90625 L 185.253906 296.59375 C 185.253906 303.429688 179.664062 309 172.800781 309 " fill-opacity="1" fill-rule="nonzero"/></g><g clip-path="url(#id2)"><path fill="#ffffff" d="M 301.140625 309 L 203.808594 309 C 196.941406 309 191.347656 303.429688 191.347656 296.59375 L 191.347656 199.90625 C 191.347656 193.070312 196.941406 187.5 203.808594 187.5 L 301.140625 187.5 C 308.003906 187.5 313.597656 193.070312 313.597656 199.90625 L 313.597656 296.59375 C 313.597656 303.429688 308.003906 309 301.140625 309 " fill-opacity="1" fill-rule="nonzero"/></g><g clip-path="url(#id3)"><path fill="#1d1d1b" d="M 110.566406 183.285156 L 69.445312 183.285156 C 62.589844 183.285156 57.003906 177.714844 57.003906 170.875 L 57.003906 74.191406 C 57.003906 67.355469 62.589844 61.785156 69.445312 61.785156 L 110.566406 61.785156 C 117.421875 61.785156 123.003906 67.355469 123.003906 74.191406 L 123.003906 170.875 C 123.003906 177.714844 117.421875 183.285156 110.566406 183.285156 " fill-opacity="1" fill-rule="nonzero"/></g><g clip-path="url(#id4)"><path fill="#1d1d1b" d="M 300.953125 183.285156 L 259.832031 183.285156 C 252.976562 183.285156 247.394531 177.714844 247.394531 170.875 L 247.394531 74.191406 C 247.394531 67.355469 252.976562 61.785156 259.832031 61.785156 L 300.953125 61.785156 C 307.808594 61.785156 313.394531 67.355469 313.394531 74.191406 L 313.394531 170.875 C 313.394531 177.714844 307.808594 183.285156 300.953125 183.285156 " fill-opacity="1" fill-rule="nonzero"/></g><g clip-path="url(#id5)"><path fill="#ffffff" d="M 229.605469 183.285156 L 140.457031 183.285156 C 133.609375 183.285156 128.03125 177.714844 128.03125 170.875 L 128.03125 74.191406 C 128.03125 67.355469 133.609375 61.785156 140.457031 61.785156 L 229.605469 61.785156 C 236.453125 61.785156 242.03125 67.355469 242.03125 74.191406 L 242.03125 170.875 C 242.03125 177.714844 236.453125 183.285156 229.605469 183.285156 " fill-opacity="1" fill-rule="nonzero"/></g><g fill="#1d1d1b" fill-opacity="1"><g transform="translate(199.586706, 163.631968)"><g><path d="M 4.363281 0 L 12.066406 0 L 13.84375 -25.640625 L 14.003906 -29.519531 L 14.167969 -29.519531 L 14.328125 -25.640625 L 16.050781 0 L 23.753906 0 L 27.957031 -40.078125 L 21.871094 -40.078125 L 19.929688 -13.089844 L 19.714844 -7.703125 L 19.609375 -7.703125 L 19.390625 -13.089844 L 17.453125 -40.078125 L 10.664062 -40.078125 L 8.726562 -13.089844 L 8.566406 -7.703125 L 8.402344 -7.703125 L 8.1875 -13.089844 L 6.25 -40.078125 L 0.214844 -40.078125 Z M 4.363281 0 "/></g></g></g><g fill="#1d1d1b" fill-opacity="1"><g transform="translate(152.021083, 292.145057)"><g><path d="M 0.214844 0 L 6.257812 0 L 6.960938 -6.691406 L 11.707031 -6.691406 L 12.410156 0 L 18.507812 0 L 13.597656 -40.140625 L 5.070312 -40.140625 Z M 7.5 -11.761719 L 9.011719 -26.601562 L 9.28125 -31.507812 L 9.386719 -31.507812 L 9.710938 -26.601562 L 11.222656 -11.761719 Z M 7.5 -11.761719 "/></g></g></g><g fill="#1d1d1b" fill-opacity="1"><g transform="translate(280.388746, 291.994796)"><g><path d="M 8.699219 0.601562 C 13.40625 0.601562 16.582031 -2.023438 16.582031 -6.566406 L 16.582031 -14.5 C 16.582031 -19.042969 14.71875 -21.175781 10.070312 -23.421875 C 8.316406 -24.460938 7.003906 -25.226562 7.003906 -27.359375 L 7.003906 -34.253906 C 7.003906 -35.242188 7.550781 -35.953125 8.699219 -35.953125 C 10.070312 -35.953125 10.617188 -35.078125 10.617188 -33.488281 L 10.617188 -26.867188 L 16.417969 -26.867188 L 16.417969 -33.488281 C 16.472656 -38.359375 13.679688 -41.261719 8.644531 -41.261719 C 4.050781 -41.261719 0.929688 -38.742188 0.929688 -34.253906 L 0.929688 -27.304688 C 0.929688 -22.820312 2.734375 -21.066406 6.402344 -19.042969 C 9.300781 -17.511719 10.507812 -16.855469 10.507812 -14.390625 L 10.507812 -6.621094 C 10.507812 -5.472656 9.851562 -4.652344 8.753906 -4.652344 C 7.167969 -4.652344 6.730469 -5.855469 6.730469 -7.222656 L 6.730469 -14.554688 L 0.765625 -14.554688 L 0.765625 -7.222656 C 0.765625 -1.96875 3.667969 0.601562 8.699219 0.601562 Z M 8.699219 0.601562 "/></g></g></g></svg>