<svg xmlns="http://www.w3.org/2000/svg" xmlns:xlink="http://www.w3.org/1999/xlink" width="500" zoomAndPan="magnify" viewBox="0 0 375 374.999991" height="500" preserveAspectRatio="xMidYMid meet" version="1.0"><defs><g/><clipPath id="id1"><path d="M 0 190.371094 L 187.5 190.371094 L 187.5 368.871094 L 0 368.871094 Z M 0 190.371094 " clip-rule="nonzero"/></clipPath><clipPath id="id2"><path d="M 196.503906 190.371094 L 375 190.371094 L 375 368.871094 L 196.503906 368.871094 Z M 196.503906 190.371094 " clip-rule="nonzero"/></clipPath><clipPath id="id3"><path d="M 0 6.492188 L 96.75 6.492188 L 96.75 184.992188 L 0 184.992188 Z M 0 6.492188 " clip-rule="nonzero"/></clipPath><clipPath id="id4"><path d="M 278.476562 6.492188 L 375 6.492188 L 375 184.992188 L 278.476562 184.992188 Z M 278.476562 6.492188 " clip-rule="nonzero"/></clipPath><clipPath id="id5"><path d="M 103.886719 6.492188 L 271.136719 6.492188 L 271.136719 184.992188 L 103.886719 184.992188 Z M 103.886719 6.492188 " clip-rule="nonzero"/></clipPath></defs><g clip-path="url(#id1)"><path fill="#ffffff" d="M 169.292969 368.871094 L 18.207031 368.871094 C 8.175781 368.871094 0 360.683594 0 350.640625 L 0 208.601562 C 0 198.558594 8.175781 190.375 18.207031 190.375 L 169.292969 190.375 C 179.324219 190.375 187.5 198.558594 187.5 208.601562 L 187.5 350.640625 C 187.5 360.683594 179.324219 368.871094 169.292969 368.871094 " fill-opacity="1" fill-rule="nonzero"/></g><g clip-path="url(#id2)"><path fill="#ffffff" d="M 356.8125 368.867188 L 214.695312 368.867188 C 204.667969 368.867188 196.503906 360.683594 196.503906 350.640625 L 196.503906 208.605469 C 196.503906 198.5625 204.667969 190.378906 214.695312 190.378906 L 356.8125 190.378906 C 366.835938 190.378906 375.003906 198.5625 375.003906 208.605469 L 375.003906 350.640625 C 375.003906 360.683594 366.835938 368.867188 356.8125 368.867188 " fill-opacity="1" fill-rule="nonzero"/></g><g clip-path="url(#id3)"><path fill="#8c52ff" d="M 78.515625 184.980469 L 18.234375 184.980469 C 8.1875 184.980469 0 176.800781 0 166.753906 L 0 24.726562 C 0 14.683594 8.1875 6.5 18.234375 6.5 L 78.515625 6.5 C 88.5625 6.5 96.75 14.683594 96.75 24.726562 L 96.75 166.753906 C 96.75 176.800781 88.5625 184.980469 78.515625 184.980469 " fill-opacity="1" fill-rule="nonzero"/></g><g clip-path="url(#id4)"><path fill="#8c52ff" d="M 356.992188 184.980469 L 296.707031 184.980469 C 286.660156 184.980469 278.476562 176.800781 278.476562 166.753906 L 278.476562 24.726562 C 278.476562 14.683594 286.660156 6.5 296.707031 6.5 L 356.992188 6.5 C 367.039062 6.5 375.226562 14.683594 375.226562 24.726562 L 375.226562 166.753906 C 375.226562 176.800781 367.039062 184.980469 356.992188 184.980469 " fill-opacity="1" fill-rule="nonzero"/></g><g clip-path="url(#id5)"><path fill="#ffffff" d="M 252.910156 184.984375 L 122.117188 184.984375 C 112.074219 184.984375 103.886719 176.800781 103.886719 166.757812 L 103.886719 24.722656 C 103.886719 14.679688 112.074219 6.496094 122.117188 6.496094 L 252.910156 6.496094 C 262.953125 6.496094 271.136719 14.679688 271.136719 24.722656 L 271.136719 166.757812 C 271.136719 176.800781 262.953125 184.984375 252.910156 184.984375 " fill-opacity="1" fill-rule="nonzero"/></g><g fill="#8c52ff" fill-opacity="1"><g transform="translate(208.556358, 155.486725)"><g><path d="M 6.382812 0 L 17.652344 0 L 20.25 -37.507812 L 20.488281 -43.179688 L 20.722656 -43.179688 L 20.960938 -37.507812 L 23.480469 0 L 34.75 0 L 40.894531 -58.625 L 31.992188 -58.625 L 29.15625 -19.148438 L 28.839844 -11.269531 L 28.683594 -11.269531 L 28.367188 -19.148438 L 25.53125 -58.625 L 15.601562 -58.625 L 12.765625 -19.148438 L 12.527344 -11.269531 L 12.292969 -11.269531 L 11.976562 -19.148438 L 9.140625 -58.625 L 0.316406 -58.625 Z M 6.382812 0 "/></g></g></g><g fill="#8c52ff" fill-opacity="1"><g transform="translate(138.977544, 343.433921)"><g><path d="M 0.316406 0 L 9.15625 0 L 10.179688 -9.785156 L 17.125 -9.785156 L 18.152344 0 L 27.070312 0 L 19.886719 -58.714844 L 7.417969 -58.714844 Z M 10.96875 -17.203125 L 13.179688 -38.90625 L 13.574219 -46.089844 L 13.730469 -46.089844 L 14.207031 -38.90625 L 16.414062 -17.203125 Z M 10.96875 -17.203125 "/></g></g></g><g fill="#8c52ff" fill-opacity="1"><g transform="translate(326.737572, 343.214146)"><g><path d="M 12.726562 0.878906 C 19.609375 0.878906 24.253906 -2.960938 24.253906 -9.605469 L 24.253906 -21.210938 C 24.253906 -27.855469 21.53125 -30.976562 14.726562 -34.257812 C 12.164062 -35.777344 10.246094 -36.898438 10.246094 -40.019531 L 10.246094 -50.105469 C 10.246094 -51.546875 11.046875 -52.585938 12.726562 -52.585938 C 14.726562 -52.585938 15.527344 -51.304688 15.527344 -48.984375 L 15.527344 -39.300781 L 24.011719 -39.300781 L 24.011719 -48.984375 C 24.09375 -56.109375 20.011719 -60.351562 12.644531 -60.351562 C 5.921875 -60.351562 1.359375 -56.667969 1.359375 -50.105469 L 1.359375 -39.941406 C 1.359375 -33.375 4.003906 -30.816406 9.363281 -27.855469 C 13.605469 -25.613281 15.367188 -24.652344 15.367188 -21.050781 L 15.367188 -9.683594 C 15.367188 -8.003906 14.40625 -6.804688 12.804688 -6.804688 C 10.484375 -6.804688 9.84375 -8.5625 9.84375 -10.566406 L 9.84375 -21.289062 L 1.121094 -21.289062 L 1.121094 -10.566406 C 1.121094 -2.882812 5.363281 0.878906 12.726562 0.878906 Z M 12.726562 0.878906 "/></g></g></g></svg>